<?xml version="1.0" standalone="no"?>
<svg viewBox="0 0 200 200" xmlns="http://www.w3.org/2000/svg">
  <path fill="#FA4D56" d="M45.6,-79.2C58.1,-71.9,66.5,-57.5,68.2,-43.2C69.9,-28.8,64.8,-14.4,63.8,-0.6C62.7,13.2,65.6,26.4,62.6,38.3C59.5,50.2,50.4,60.9,39,68.9C27.5,76.8,13.8,82.1,-0.6,83.2C-15.1,84.3,-30.1,81.3,-42.9,74.1C-55.6,66.9,-66.1,55.6,-69.7,42.5C-73.4,29.5,-70.2,14.7,-70.4,-0.2C-70.7,-15.1,-74.5,-30.1,-70.4,-42.4C-66.4,-54.8,-54.6,-64.4,-41.5,-71.4C-28.5,-78.5,-14.2,-82.9,1.2,-85C16.6,-87,33.2,-86.6,45.6,-79.2Z" transform="translate(100 100)" />
</svg>
