<?xml version="1.0" standalone="no"?>
<svg viewBox="0 0 200 200" xmlns="http://www.w3.org/2000/svg">
  <path fill="#FFD6E8" d="M29.9,-58.4C37.3,-47.6,40.6,-36.5,44.1,-26.7C47.6,-16.9,51.2,-8.5,58,3.9C64.8,16.3,74.8,32.6,70.7,41.5C66.7,50.3,48.7,51.7,34.6,57.4C20.4,63.1,10.2,73.1,-2.6,77.6C-15.4,82.1,-30.8,81.1,-41.2,73.2C-51.5,65.3,-56.8,50.6,-63.3,37.3C-69.7,23.9,-77.3,12,-79.6,-1.3C-81.9,-14.6,-78.9,-29.2,-69.1,-36.7C-59.2,-44.2,-42.6,-44.5,-29.9,-52.2C-17.3,-59.9,-8.6,-74.8,1.3,-77.1C11.3,-79.5,22.6,-69.1,29.9,-58.4Z" transform="translate(100 100)" />
</svg>
