<?xml version="1.0" standalone="no"?>
<svg viewBox="0 0 200 200" xmlns="http://www.w3.org/2000/svg">
  <path fill="#FA4D56" d="M32.4,-62.3C39.9,-51.8,42.4,-38.9,44.2,-28.1C45.9,-17.3,46.8,-8.7,53.3,3.7C59.8,16.1,71.7,32.2,69.4,42C67.1,51.8,50.5,55.3,36.6,57.8C22.7,60.2,11.3,61.5,-1.9,64.7C-15,68,-30.1,73,-38.2,67.3C-46.4,61.5,-47.7,44.9,-51,31.9C-54.2,18.9,-59.5,9.4,-61.3,-1C-63.1,-11.5,-61.4,-23,-53.5,-28C-45.6,-33.1,-31.6,-31.7,-21.6,-40.8C-11.7,-49.8,-5.8,-69.4,3.3,-75.1C12.5,-80.9,24.9,-72.8,32.4,-62.3Z" transform="translate(100 100)" />
</svg>
