<?xml version="1.0" standalone="no"?>
<svg viewBox="0 0 200 200" xmlns="http://www.w3.org/2000/svg">
  <path fill="#FA4D56" d="M40.3,-69.8C53.9,-62,67.7,-54.5,77.4,-43C87.1,-31.4,92.7,-15.7,82.8,-5.7C72.9,4.2,47.4,8.5,38.7,21.6C29.9,34.8,37.7,56.8,34,67.4C30.3,78.1,15.2,77.3,1.7,74.4C-11.8,71.4,-23.6,66.3,-37.7,61.7C-51.7,57.1,-68.1,52.9,-72.9,42.7C-77.7,32.5,-70.9,16.3,-61.2,5.6C-51.5,-5,-38.7,-10,-31.1,-15.3C-23.4,-20.6,-20.9,-26.2,-16.6,-39.4C-12.2,-52.5,-6.1,-73.3,3.6,-79.6C13.4,-85.8,26.8,-77.7,40.3,-69.8Z" transform="translate(100 100)" />
</svg>
