<?xml version="1.0" standalone="no"?><svg xmlns="http://www.w3.org/2000/svg" viewBox="0 0 1440 320"><path fill="#e7008a" fill-opacity="1" d="M0,128L6.2,144C12.3,160,25,192,37,197.3C49.2,203,62,181,74,186.7C86.2,192,98,224,111,224C123.1,224,135,192,148,165.3C160,139,172,117,185,96C196.9,75,209,53,222,80C233.8,107,246,181,258,224C270.8,267,283,277,295,266.7C307.7,256,320,224,332,186.7C344.6,149,357,107,369,122.7C381.5,139,394,213,406,229.3C418.5,245,431,203,443,170.7C455.4,139,468,117,480,122.7C492.3,128,505,160,517,149.3C529.2,139,542,85,554,74.7C566.2,64,578,96,591,128C603.1,160,615,192,628,176C640,160,652,96,665,106.7C676.9,117,689,203,702,208C713.8,213,726,139,738,138.7C750.8,139,763,213,775,202.7C787.7,192,800,96,812,74.7C824.6,53,837,107,849,106.7C861.5,107,874,53,886,74.7C898.5,96,911,192,923,208C935.4,224,948,160,960,165.3C972.3,171,985,245,997,266.7C1009.2,288,1022,256,1034,250.7C1046.2,245,1058,267,1071,240C1083.1,213,1095,139,1108,112C1120,85,1132,107,1145,106.7C1156.9,107,1169,85,1182,74.7C1193.8,64,1206,64,1218,69.3C1230.8,75,1243,85,1255,122.7C1267.7,160,1280,224,1292,213.3C1304.6,203,1317,117,1329,90.7C1341.5,64,1354,96,1366,144C1378.5,192,1391,256,1403,234.7C1415.4,213,1428,107,1434,53.3L1440,0L1440,320L1433.8,320C1427.7,320,1415,320,1403,320C1390.8,320,1378,320,1366,320C1353.8,320,1342,320,1329,320C1316.9,320,1305,320,1292,320C1280,320,1268,320,1255,320C1243.1,320,1231,320,1218,320C1206.2,320,1194,320,1182,320C1169.2,320,1157,320,1145,320C1132.3,320,1120,320,1108,320C1095.4,320,1083,320,1071,320C1058.5,320,1046,320,1034,320C1021.5,320,1009,320,997,320C984.6,320,972,320,960,320C947.7,320,935,320,923,320C910.8,320,898,320,886,320C873.8,320,862,320,849,320C836.9,320,825,320,812,320C800,320,788,320,775,320C763.1,320,751,320,738,320C726.2,320,714,320,702,320C689.2,320,677,320,665,320C652.3,320,640,320,628,320C615.4,320,603,320,591,320C578.5,320,566,320,554,320C541.5,320,529,320,517,320C504.6,320,492,320,480,320C467.7,320,455,320,443,320C430.8,320,418,320,406,320C393.8,320,382,320,369,320C356.9,320,345,320,332,320C320,320,308,320,295,320C283.1,320,271,320,258,320C246.2,320,234,320,222,320C209.2,320,197,320,185,320C172.3,320,160,320,148,320C135.4,320,123,320,111,320C98.5,320,86,320,74,320C61.5,320,49,320,37,320C24.6,320,12,320,6,320L0,320Z"></path></svg>