<?xml version="1.0" standalone="no"?><svg xmlns="http://www.w3.org/2000/svg" viewBox="0 0 1440 320"><path fill="#273036" fill-opacity="1" d="M0,256L6.2,245.3C12.3,235,25,213,37,224C49.2,235,62,277,74,293.3C86.2,309,98,299,111,272C123.1,245,135,203,148,202.7C160,203,172,245,185,261.3C196.9,277,209,267,222,256C233.8,245,246,235,258,202.7C270.8,171,283,117,295,112C307.7,107,320,149,332,176C344.6,203,357,213,369,202.7C381.5,192,394,160,406,165.3C418.5,171,431,213,443,218.7C455.4,224,468,192,480,154.7C492.3,117,505,75,517,96C529.2,117,542,203,554,208C566.2,213,578,139,591,122.7C603.1,107,615,149,628,186.7C640,224,652,256,665,234.7C676.9,213,689,139,702,90.7C713.8,43,726,21,738,32C750.8,43,763,85,775,96C787.7,107,800,85,812,69.3C824.6,53,837,43,849,64C861.5,85,874,139,886,133.3C898.5,128,911,64,923,69.3C935.4,75,948,149,960,202.7C972.3,256,985,288,997,293.3C1009.2,299,1022,277,1034,240C1046.2,203,1058,149,1071,106.7C1083.1,64,1095,32,1108,58.7C1120,85,1132,171,1145,213.3C1156.9,256,1169,256,1182,224C1193.8,192,1206,128,1218,96C1230.8,64,1243,64,1255,96C1267.7,128,1280,192,1292,229.3C1304.6,267,1317,277,1329,266.7C1341.5,256,1354,224,1366,224C1378.5,224,1391,256,1403,261.3C1415.4,267,1428,245,1434,234.7L1440,224L1440,320L1433.8,320C1427.7,320,1415,320,1403,320C1390.8,320,1378,320,1366,320C1353.8,320,1342,320,1329,320C1316.9,320,1305,320,1292,320C1280,320,1268,320,1255,320C1243.1,320,1231,320,1218,320C1206.2,320,1194,320,1182,320C1169.2,320,1157,320,1145,320C1132.3,320,1120,320,1108,320C1095.4,320,1083,320,1071,320C1058.5,320,1046,320,1034,320C1021.5,320,1009,320,997,320C984.6,320,972,320,960,320C947.7,320,935,320,923,320C910.8,320,898,320,886,320C873.8,320,862,320,849,320C836.9,320,825,320,812,320C800,320,788,320,775,320C763.1,320,751,320,738,320C726.2,320,714,320,702,320C689.2,320,677,320,665,320C652.3,320,640,320,628,320C615.4,320,603,320,591,320C578.5,320,566,320,554,320C541.5,320,529,320,517,320C504.6,320,492,320,480,320C467.7,320,455,320,443,320C430.8,320,418,320,406,320C393.8,320,382,320,369,320C356.9,320,345,320,332,320C320,320,308,320,295,320C283.1,320,271,320,258,320C246.2,320,234,320,222,320C209.2,320,197,320,185,320C172.3,320,160,320,148,320C135.4,320,123,320,111,320C98.5,320,86,320,74,320C61.5,320,49,320,37,320C24.6,320,12,320,6,320L0,320Z"></path></svg>