<svg xmlns="http://www.w3.org/2000/svg" viewBox="0 0 1440 320"><path fill="#f3f4f5" fill-opacity="1" d="M0,224L6.2,213.3C12.3,203,25,181,37,144C49.2,107,62,53,74,58.7C86.2,64,98,128,111,138.7C123.1,149,135,107,148,96C160,85,172,107,185,101.3C196.9,96,209,64,222,96C233.8,128,246,224,258,234.7C270.8,245,283,171,295,160C307.7,149,320,203,332,229.3C344.6,256,357,256,369,245.3C381.5,235,394,213,406,208C418.5,203,431,213,443,208C455.4,203,468,181,480,181.3C492.3,181,505,203,517,224C529.2,245,542,267,554,250.7C566.2,235,578,181,591,149.3C603.1,117,615,107,628,133.3C640,160,652,224,665,224C676.9,224,689,160,702,160C713.8,160,726,224,738,240C750.8,256,763,224,775,202.7C787.7,181,800,171,812,144C824.6,117,837,75,849,58.7C861.5,43,874,53,886,48C898.5,43,911,21,923,37.3C935.4,53,948,107,960,117.3C972.3,128,985,96,997,85.3C1009.2,75,1022,85,1034,112C1046.2,139,1058,181,1071,181.3C1083.1,181,1095,139,1108,117.3C1120,96,1132,96,1145,128C1156.9,160,1169,224,1182,234.7C1193.8,245,1206,203,1218,197.3C1230.8,192,1243,224,1255,218.7C1267.7,213,1280,171,1292,133.3C1304.6,96,1317,64,1329,64C1341.5,64,1354,96,1366,117.3C1378.5,139,1391,149,1403,144C1415.4,139,1428,117,1434,106.7L1440,96L1440,0L1433.8,0C1427.7,0,1415,0,1403,0C1390.8,0,1378,0,1366,0C1353.8,0,1342,0,1329,0C1316.9,0,1305,0,1292,0C1280,0,1268,0,1255,0C1243.1,0,1231,0,1218,0C1206.2,0,1194,0,1182,0C1169.2,0,1157,0,1145,0C1132.3,0,1120,0,1108,0C1095.4,0,1083,0,1071,0C1058.5,0,1046,0,1034,0C1021.5,0,1009,0,997,0C984.6,0,972,0,960,0C947.7,0,935,0,923,0C910.8,0,898,0,886,0C873.8,0,862,0,849,0C836.9,0,825,0,812,0C800,0,788,0,775,0C763.1,0,751,0,738,0C726.2,0,714,0,702,0C689.2,0,677,0,665,0C652.3,0,640,0,628,0C615.4,0,603,0,591,0C578.5,0,566,0,554,0C541.5,0,529,0,517,0C504.6,0,492,0,480,0C467.7,0,455,0,443,0C430.8,0,418,0,406,0C393.8,0,382,0,369,0C356.9,0,345,0,332,0C320,0,308,0,295,0C283.1,0,271,0,258,0C246.2,0,234,0,222,0C209.2,0,197,0,185,0C172.3,0,160,0,148,0C135.4,0,123,0,111,0C98.5,0,86,0,74,0C61.5,0,49,0,37,0C24.6,0,12,0,6,0L0,0Z"></path></svg>